<?xml version="1.0" encoding="UTF-8" standalone="no"?>
<svg
   xmlns:dc="http://purl.org/dc/elements/1.1/"
   xmlns:cc="http://creativecommons.org/ns#"
   xmlns:rdf="http://www.w3.org/1999/02/22-rdf-syntax-ns#"
   xmlns:svg="http://www.w3.org/2000/svg"
   xmlns="http://www.w3.org/2000/svg"
   xmlns:sodipodi="http://sodipodi.sourceforge.net/DTD/sodipodi-0.dtd"
   xmlns:inkscape="http://www.inkscape.org/namespaces/inkscape"
   width="40.747116mm"
   height="56.049202mm"
   viewBox="0 0 40.747116 56.049202"
   version="1.1"
   id="svg1206"
   inkscape:version="1.0.1 (1.0.1+r73)"
   sodipodi:docname="logo.svg">
  <defs
     id="defs1200" />
  <sodipodi:namedview
     id="base"
     pagecolor="#ffffff"
     bordercolor="#666666"
     borderopacity="1.0"
     inkscape:pageopacity="0.0"
     inkscape:pageshadow="2"
     inkscape:zoom="1.8895614"
     inkscape:cx="77.002426"
     inkscape:cy="105.91974"
     inkscape:document-units="mm"
     inkscape:current-layer="layer1"
     inkscape:document-rotation="0"
     showgrid="false"
     inkscape:window-width="1366"
     inkscape:window-height="712"
     inkscape:window-x="0"
     inkscape:window-y="0"
     inkscape:window-maximized="1" />
  <metadata
     id="metadata1203">
    <rdf:RDF>
      <cc:Work
         rdf:about="">
        <dc:format>image/svg+xml</dc:format>
        <dc:type
           rdf:resource="http://purl.org/dc/dcmitype/StillImage" />
        <dc:title></dc:title>
      </cc:Work>
    </rdf:RDF>
  </metadata>
  <g
     inkscape:label="Capa 1"
     inkscape:groupmode="layer"
     id="layer1"
     transform="translate(-85.459775,-120.14207)">
    <path
       style="color:#000000;font-style:normal;font-variant:normal;font-weight:bold;font-stretch:normal;font-size:medium;line-height:1.25;font-family:Century;-inkscape-font-specification:'Century Bold';font-variant-ligatures:normal;font-variant-position:normal;font-variant-caps:normal;font-variant-numeric:normal;font-variant-alternates:normal;font-feature-settings:normal;text-indent:0;text-align:start;text-decoration:none;text-decoration-line:none;text-decoration-style:solid;text-decoration-color:#000000;letter-spacing:0px;word-spacing:0px;text-transform:none;writing-mode:lr-tb;direction:ltr;text-orientation:mixed;dominant-baseline:auto;baseline-shift:baseline;text-anchor:start;white-space:normal;shape-padding:0;clip-rule:nonzero;display:inline;overflow:visible;visibility:visible;isolation:auto;mix-blend-mode:normal;color-interpolation:sRGB;color-interpolation-filters:linearRGB;solid-color:#000000;solid-opacity:1;vector-effect:none;fill:#ffffff;fill-opacity:1;fill-rule:nonzero;stroke:none;stroke-width:0.38987;stroke-linecap:butt;stroke-linejoin:miter;stroke-miterlimit:4;stroke-dasharray:none;stroke-dashoffset:0;stroke-opacity:1;color-rendering:auto;image-rendering:auto;shape-rendering:auto;text-rendering:auto;enable-background:accumulate"
       d="m 86.863301,163.88888 -0.0065,0.18821 c -0.02392,0.68374 -0.174613,1.10077 -0.455203,1.46292 -0.173865,0.22138 -0.42156,0.36179 -0.779727,0.42309 l -0.162065,0.0277 v 0.73267 h 0.868981 v 3.15853 c 0,0.40711 0.136493,0.7652 0.404796,1.02935 l 0.001,0.001 0.001,0.001 c 0.27585,0.26332 0.657308,0.38972 1.104907,0.38972 0.494267,0 0.924792,-0.18759 1.239485,-0.5461 l 3.11e-4,-3.4e-4 3.39e-4,-3.1e-4 c 0.322557,-0.37151 0.478572,-0.91271 0.500733,-1.60379 l 0.0065,-0.20119 h -0.743025 l -0.01019,0.18431 c -0.02734,0.49553 -0.128846,0.83072 -0.258927,1.00147 -0.143721,0.18864 -0.28193,0.25917 -0.463422,0.25917 -0.155339,0 -0.257573,-0.0455 -0.355436,-0.15348 -0.09159,-0.1044 -0.148039,-0.26421 -0.148039,-0.51004 v -3.00929 h 1.61539 v -0.88044 h -1.61539 v -1.95419 z"
       id="path1140"
       inkscape:connector-curvature="0" />
    <path
       style="color:#000000;font-style:normal;font-variant:normal;font-weight:bold;font-stretch:normal;font-size:medium;line-height:1.25;font-family:Century;-inkscape-font-specification:'Century Bold';font-variant-ligatures:normal;font-variant-position:normal;font-variant-caps:normal;font-variant-numeric:normal;font-variant-alternates:normal;font-feature-settings:normal;text-indent:0;text-align:start;text-decoration:none;text-decoration-line:none;text-decoration-style:solid;text-decoration-color:#000000;letter-spacing:0px;word-spacing:0px;text-transform:none;writing-mode:lr-tb;direction:ltr;text-orientation:mixed;dominant-baseline:auto;baseline-shift:baseline;text-anchor:start;white-space:normal;shape-padding:0;clip-rule:nonzero;display:inline;overflow:visible;visibility:visible;isolation:auto;mix-blend-mode:normal;color-interpolation:sRGB;color-interpolation-filters:linearRGB;solid-color:#000000;solid-opacity:1;vector-effect:none;fill:#ffffff;fill-opacity:1;fill-rule:nonzero;stroke:none;stroke-width:0.38987;stroke-linecap:butt;stroke-linejoin:miter;stroke-miterlimit:4;stroke-dasharray:none;stroke-dashoffset:0;stroke-opacity:1;color-rendering:auto;image-rendering:auto;shape-rendering:auto;text-rendering:auto;enable-background:accumulate"
       d="m 92.340514,165.69381 v 0 c -0.709331,0 -1.328745,0.2732 -1.812265,0.79859 -0.486521,0.52869 -0.728599,1.22318 -0.728599,2.04605 0,0.81917 0.240159,1.51155 0.722796,2.04013 l 3.28e-4,3.1e-4 2.03e-4,3.2e-4 c 0.482826,0.52468 1.094769,0.79878 1.79095,0.79878 0.470194,0 0.914704,-0.12235 1.319751,-0.36292 0.409044,-0.24085 0.728765,-0.57377 0.947555,-0.98805 l 2.03e-4,-3.4e-4 c 0.2239,-0.42094 0.332026,-0.92168 0.332026,-1.49338 0,-0.82965 -0.245848,-1.5252 -0.740325,-2.0471 l -2.87e-4,-3.1e-4 c -0.487594,-0.52172 -1.113519,-0.79194 -1.832254,-0.79194 z m 0,0.76833 c 0.370007,0 0.63402,0.13449 0.855723,0.43739 l 3.28e-4,6.8e-4 3.39e-4,3.4e-4 c 0.214458,0.28893 0.345402,0.80824 0.345402,1.55797 0,0.81147 -0.134098,1.37476 -0.3533,1.68405 l -3.25e-4,3.4e-4 -3.28e-4,6.8e-4 c -0.227507,0.32546 -0.489283,0.46583 -0.84795,0.46583 -0.342019,0 -0.597592,-0.13877 -0.825867,-0.46479 0,-2.3e-4 0,-3.1e-4 -2.03e-4,-3.3e-4 -0.214905,-0.31204 -0.343869,-0.85545 -0.343869,-1.62712 0,-0.75705 0.130399,-1.28824 0.347656,-1.59299 l 2.03e-4,-3.1e-4 3.28e-4,-3.4e-4 c 0.228461,-0.32366 0.482847,-0.46128 0.821755,-0.46128 z"
       id="path1142"
       inkscape:connector-curvature="0" />
    <path
       style="color:#000000;font-style:normal;font-variant:normal;font-weight:bold;font-stretch:normal;font-size:medium;line-height:1.25;font-family:Century;-inkscape-font-specification:'Century Bold';font-variant-ligatures:normal;font-variant-position:normal;font-variant-caps:normal;font-variant-numeric:normal;font-variant-alternates:normal;font-feature-settings:normal;text-indent:0;text-align:start;text-decoration:none;text-decoration-line:none;text-decoration-style:solid;text-decoration-color:#000000;letter-spacing:0px;word-spacing:0px;text-transform:none;writing-mode:lr-tb;direction:ltr;text-orientation:mixed;dominant-baseline:auto;baseline-shift:baseline;text-anchor:start;white-space:normal;shape-padding:0;clip-rule:nonzero;display:inline;overflow:visible;visibility:visible;isolation:auto;mix-blend-mode:normal;color-interpolation:sRGB;color-interpolation-filters:linearRGB;solid-color:#000000;solid-opacity:1;vector-effect:none;fill:#ffffff;fill-opacity:1;fill-rule:nonzero;stroke:none;stroke-width:0.38987;stroke-linecap:butt;stroke-linejoin:miter;stroke-miterlimit:4;stroke-dasharray:none;stroke-dashoffset:0;stroke-opacity:1;color-rendering:auto;image-rendering:auto;shape-rendering:auto;text-rendering:auto;enable-background:accumulate"
       d="m 97.256831,165.73177 -1.967035,0.12318 v 0.18306 0.54142 h 0.450933 c 0.183794,0 0.232728,0.0269 0.318927,0.11041 l 10e-4,0.001 0.001,0.001 c 0.07156,0.0672 0.114515,0.16556 0.114515,0.34311 v 3.22554 c 0,0.0503 -0.0075,0.0697 -0.06258,0.11209 l -0.0017,0.001 -0.0014,0.001 c -0.06333,0.0507 -0.08385,0.064 -0.23149,0.064 h -0.541554 v 0.78964 h 2.951905 v -0.78964 h -0.541551 c -0.161815,0 -0.190422,-0.0166 -0.241563,-0.0609 -0.02717,-0.0274 -0.06077,-0.0964 -0.06077,-0.24535 v -1.85018 c 0,-0.48555 0.121435,-0.8555 0.355476,-1.13944 0.239445,-0.28625 0.508371,-0.41426 0.857255,-0.41426 0.353906,0 0.573021,0.1184 0.740724,0.38791 l 3.38e-4,6.8e-4 6.77e-4,6.7e-4 c 0.109405,0.17233 0.182938,0.48395 0.182938,0.92975 v 2.13804 c 0,0.10907 -0.02328,0.14953 -0.06628,0.18427 -0.05175,0.0418 -0.112871,0.0687 -0.326784,0.0687 H 98.74432 v 0.78964 h 2.94122 v -0.78964 h -0.54687 c -0.16397,0 -0.18732,-0.0158 -0.23544,-0.0596 -0.0273,-0.0269 -0.0615,-0.0964 -0.0615,-0.24672 v -2.43118 c 0,-0.37352 -0.0732,-0.71909 -0.2219,-1.02826 -0.14815,-0.30801 -0.35453,-0.54711 -0.61678,-0.69721 -0.259797,-0.15223 -0.573279,-0.22355 -0.929138,-0.22355 -0.414565,0 -0.797157,0.0995 -1.133632,0.2991 l -3.39e-4,3.1e-4 -3.38e-4,3.1e-4 c -0.207102,0.12425 -0.388936,0.2984 -0.558758,0.49526 -0.02778,-0.22193 -0.0482,-0.46392 -0.08877,-0.6518 z"
       id="path1144"
       inkscape:connector-curvature="0" />
    <path
       style="color:#000000;font-style:normal;font-variant:normal;font-weight:bold;font-stretch:normal;font-size:medium;line-height:1.25;font-family:Century;-inkscape-font-specification:'Century Bold';font-variant-ligatures:normal;font-variant-position:normal;font-variant-caps:normal;font-variant-numeric:normal;font-variant-alternates:normal;font-feature-settings:normal;text-indent:0;text-align:start;text-decoration:none;text-decoration-line:none;text-decoration-style:solid;text-decoration-color:#000000;letter-spacing:0px;word-spacing:0px;text-transform:none;writing-mode:lr-tb;direction:ltr;text-orientation:mixed;dominant-baseline:auto;baseline-shift:baseline;text-anchor:start;white-space:normal;shape-padding:0;clip-rule:nonzero;display:inline;overflow:visible;visibility:visible;isolation:auto;mix-blend-mode:normal;color-interpolation:sRGB;color-interpolation-filters:linearRGB;solid-color:#000000;solid-opacity:1;vector-effect:none;fill:#ffffff;fill-opacity:1;fill-rule:nonzero;stroke:none;stroke-width:0.38987;stroke-linecap:butt;stroke-linejoin:miter;stroke-miterlimit:4;stroke-dasharray:none;stroke-dashoffset:0;stroke-opacity:1;color-rendering:auto;image-rendering:auto;shape-rendering:auto;text-rendering:auto;enable-background:accumulate"
       d="m 104.70983,165.69385 c -0.67277,1e-5 -1.23886,0.15365 -1.67732,0.47467 l -2.9e-4,3.1e-4 -3.3e-4,3.1e-4 c -0.4247,0.31373 -0.67102,0.69703 -0.67102,1.12179 0,0.22883 0.0785,0.44239 0.23105,0.59957 l 0.001,0.001 10e-4,0.001 c 0.15463,0.15464 0.36381,0.23834 0.58571,0.23834 0.20578,0 0.3997,-0.0678 0.54063,-0.20393 l 0.001,-0.001 0.001,-10e-4 c 0.13874,-0.13873 0.21167,-0.33063 0.21167,-0.53245 0,-0.17098 -0.0746,-0.33141 -0.19172,-0.49296 l -0.001,-10e-4 -10e-4,-0.001 c -0.0478,-0.0637 -0.0705,-0.11956 -0.0809,-0.1403 0.002,-0.002 0.003,-0.004 0.006,-0.007 0.0194,-0.0228 0.0634,-0.06 0.12991,-0.10021 0.19005,-0.10814 0.41974,-0.16537 0.70128,-0.16537 0.29672,0 0.51745,0.0799 0.69704,0.23879 0.18285,0.16188 0.2595,0.32926 0.2595,0.54719 v 0.5889 c -0.94833,0.12192 -1.73158,0.34451 -2.33722,0.68608 -0.64439,0.3619 -1.0109,0.86524 -1.0109,1.46018 0,0.39503 0.16549,0.7458 0.47056,0.99796 0.31379,0.25944 0.75193,0.37526 1.29174,0.37526 0.38023,0 0.7163,-0.062 1.00361,-0.19369 l 0.001,-3.4e-4 10e-4,-3.4e-4 c 0.23286,-0.10997 0.48189,-0.313 0.74624,-0.56698 0.10546,0.21572 0.22147,0.40143 0.37055,0.52133 l 7.8e-4,6.8e-4 7.8e-4,6.7e-4 c 0.20296,0.15978 0.45669,0.23907 0.73375,0.23907 0.3711,0 0.71635,-0.16385 1.00344,-0.45883 l 0.10815,-0.11117 -0.38863,-0.60445 -0.16755,0.12471 c -0.1302,0.0969 -0.23543,0.13204 -0.32074,0.13204 -0.0631,0 -0.09,-0.0117 -0.14175,-0.0892 l -8.1e-4,-0.001 -7.8e-4,-0.001 c -0.0417,-0.0607 -0.083,-0.20213 -0.083,-0.42277 v -2.72984 c 0,-0.42466 -0.19194,-0.80521 -0.53974,-1.09374 l -4.7e-4,-3.4e-4 -4.7e-4,-3.3e-4 c -0.35956,-0.29417 -0.86141,-0.42776 -1.48299,-0.42776 z m 0.74338,2.91625 v 0.48292 c 0,0.43796 -0.13368,0.77917 -0.40906,1.06405 v 2.3e-4 c -0.27473,0.28432 -0.577,0.41499 -0.9474,0.41499 -0.19179,0 -0.31907,-0.0538 -0.42856,-0.16827 -0.10657,-0.11485 -0.1657,-0.27277 -0.1657,-0.51125 0,-0.34389 0.10895,-0.57189 0.34343,-0.75036 0.29851,-0.22221 0.8457,-0.40794 1.60729,-0.53224 z"
       id="path1146"
       inkscape:connector-curvature="0" />
    <path
       inkscape:connector-curvature="0"
       style="color:#000000;font-style:normal;font-variant:normal;font-weight:normal;font-stretch:normal;font-size:medium;line-height:normal;font-family:sans-serif;font-variant-ligatures:normal;font-variant-position:normal;font-variant-caps:normal;font-variant-numeric:normal;font-variant-alternates:normal;font-feature-settings:normal;text-indent:0;text-align:start;text-decoration:none;text-decoration-line:none;text-decoration-style:solid;text-decoration-color:#000000;letter-spacing:normal;word-spacing:normal;text-transform:none;writing-mode:lr-tb;direction:ltr;text-orientation:mixed;dominant-baseline:auto;baseline-shift:baseline;text-anchor:start;white-space:normal;shape-padding:0;clip-rule:nonzero;display:inline;overflow:visible;visibility:visible;isolation:auto;mix-blend-mode:normal;color-interpolation:sRGB;color-interpolation-filters:linearRGB;solid-color:#000000;solid-opacity:1;vector-effect:none;fill:#ffffff;fill-opacity:1;fill-rule:evenodd;stroke:none;stroke-width:1.76803;stroke-linecap:round;stroke-linejoin:round;stroke-miterlimit:4;stroke-dasharray:none;stroke-dashoffset:0;stroke-opacity:1;color-rendering:auto;image-rendering:auto;shape-rendering:auto;text-rendering:auto;enable-background:accumulate"
       d="m 104.98158,120.14456 c 0,0 -0.19522,3.35363 -0.61721,7.82809 v 0 c -0.42201,4.47447 -1.99307,7.8567 -4.00571,11.36822 -0.34241,0.59742 -1.423891,2.2646 -1.848142,2.84775 0,0 -0.0017,0 -0.0017,0 -1.157458,1.39483 -2.265018,2.85297 -3.068138,4.39524 0.414823,0.42814 0.868395,0.86883 1.351296,1.29947 0.717977,-1.53471 1.840304,-3.0801 3.111659,-4.60943 0.01201,-0.0148 0.02379,-0.0296 0.03493,-0.0452 0.513465,-0.70549 1.530445,-2.27193 1.954135,-3.01118 1.4767,-2.5764 2.57331,-5.42594 3.27637,-8.32102 0.79869,3.30123 2.13629,6.49618 3.94198,9.3883 0.11091,-0.0678 0.23104,-0.11135 0.35372,-0.13123 h -0.002 c 0.50203,-0.0815 1.04334,0.22393 1.14024,0.77519 0.074,0.4212 0.0426,0.75515 -0.0552,1.0208 -0.0373,0.10113 -0.0777,0.18776 -0.11898,0.26916 0.39915,0.51695 0.81802,0.97846 1.22712,1.43163 0.0545,0.0327 0.10639,0.0694 0.15472,0.109 0.0956,0.0787 0.18758,0.19275 0.23735,0.32998 0.27537,0.31227 0.54188,0.62806 0.78893,0.96318 0.27006,-0.41021 0.52638,-0.77535 0.73039,-1.04287 0.10616,-0.13926 0.19643,-0.25107 0.27866,-0.3398 0.034,-0.0366 0.0648,-0.0686 0.10683,-0.10401 -0.83726,-1.06057 -1.73904,-1.87108 -2.36184,-2.74717 -2.60001,-3.65241 -5.05183,-8.95664 -5.68305,-13.13707 -0.63122,-4.18036 -0.92653,-8.5395 -0.92653,-8.5395 z m 10.88943,28.37221 c -0.40319,0.0164 -0.72762,0.15501 -1.09776,0.43079 -0.18663,0.13902 -0.3599,0.25528 -0.54634,0.34994 0.0533,0.29559 0.0923,0.60069 0.11749,0.91452 0.15147,0.11033 0.2748,0.29201 0.31109,0.48077 0.0438,0.22807 -0.0583,0.47563 -0.21962,0.66058 0.10259,-0.0211 0.20378,-0.0507 0.31767,-0.0273 0.16303,0.0328 0.30803,0.13107 0.40018,0.23135 0.12374,0.13473 0.19897,0.34993 0.17863,0.53597 -0.0204,0.18596 -0.10386,0.33021 -0.201,0.452 -0.19429,0.24358 -0.46976,0.43212 -0.83153,0.62323 -0.0817,0.0429 -0.17427,0.084 -0.27502,0.12381 -0.26625,0.82673 -0.66728,1.67561 -1.14443,2.38156 -1.15457,1.70812 -2.74763,2.9403 -4.64766,3.60874 4.44083,-0.73417 6.40691,-3.09943 7.06429,-4.34877 0.37862,-0.85924 0.64754,-1.75926 0.7733,-2.62576 v 0 c 0.072,-0.50175 0.0764,-0.95047 0.0753,-1.29308 l -0.17918,0.0499 c -0.17964,0.0499 -0.31605,0.0876 -0.42577,0.11383 -0.0549,0.0133 -0.1025,0.0234 -0.15399,0.0312 -0.0515,0.008 -0.093,0.0273 -0.22862,-0.008 -0.0678,-0.0156 -0.18992,-0.0561 -0.28071,-0.19189 -0.0908,-0.13574 -0.0814,-0.30619 -0.056,-0.38884 0.0509,-0.16538 0.0997,-0.18222 0.13467,-0.21894 0.07,-0.0733 0.13403,-0.12405 0.22105,-0.19649 0.10711,-0.0893 0.35236,-0.42307 0.40924,-0.56124 0.0975,-0.23672 0.17436,-0.45714 0.39058,-0.60092 -0.0311,-0.17817 -0.0661,-0.35446 -0.10584,-0.52857 z m -21.29157,0.15571 c -0.231771,0.7741 -0.368376,1.56941 -0.381631,2.38842 -1.7e-5,0 -1.7e-5,0.008 0,0.008 -0.0039,0.53278 0.05606,1.01417 0.126718,1.4204 0.805359,4.60585 4.504133,8.20844 9.174843,8.95922 1.08696,0.17473 2.82113,0.13318 3.89309,-0.0963 1.55546,-0.33294 2.9882,-0.97192 4.23527,-1.8742 -4.19196,1.39717 -7.20921,0.70533 -9.13818,-0.0756 -0.82057,-0.25302 -1.59179,-0.6134 -2.29698,-1.06439 -3.4e-4,0 -6.8e-4,0 -0.002,0 3.1e-4,0 6.8e-4,0 6.8e-4,0 -2.142485,-1.37027 -3.674941,-3.5767 -4.125407,-6.15178 -0.05894,-0.3384 -0.102935,-0.71016 -0.100144,-1.09916 0.003,-0.1798 0.01519,-0.36007 0.03438,-0.54065 -0.502229,-0.53551 -0.980121,-1.18805 -1.421661,-1.87295 z"
       id="path1148"
       inkscape:export-filename="D:\palzq\Desktop\daphos\tonagua\render\tonagua_2.png"
       inkscape:export-xdpi="300"
       inkscape:export-ydpi="300" />
    <path
       sodipodi:nodetypes="ccccccccsccccssccccsccccccccccsccccsccccscsssscccsccc"
       inkscape:connector-curvature="0"
       id="path1150"
       d="m 107.40284,157.69735 c 0.38801,0.0554 1.00698,-0.43251 1.08064,-0.85192 0.0891,-0.50697 -0.40317,-2.14686 -0.53992,-1.7995 -0.0501,0.12717 -0.0637,0.37933 -0.0304,0.5603 0.0313,0.18145 -0.12432,0.66261 -0.35046,1.07024 -0.44524,0.80256 -0.47243,0.9762 -0.15987,1.02088 z m 2.35172,-1.84769 c 0.68291,0.49286 0.85645,0.51298 1.07059,0.12405 0.22572,-0.41005 -0.0625,-0.70143 -0.59307,-0.59967 -0.25971,0.0499 -0.61854,0.0452 -0.79743,-0.0109 -0.46534,-0.14495 -0.38458,-0.0218 0.31991,0.4863 z m -0.47197,-13.37536 c 0.10544,0.11025 0.24078,0.44 0.30101,0.7327 0.0897,0.43742 0.10999,0.47212 0.21404,0.23438 0.23674,-0.54096 0.47471,-0.68996 0.34427,-1.4321 -0.0699,-0.39773 -0.5756,-0.56365 -0.89119,-0.298 -0.26294,0.22136 -0.25273,0.46549 0.0319,0.76302 z m 1.88572,3.59822 c 0.46856,-0.51468 0.56131,-0.78236 0.33564,-0.96809 -0.33434,-0.27516 -0.63426,-0.12514 -0.55684,0.2786 0.0389,0.20272 0.0477,0.50346 0.0195,0.66813 -0.0465,0.27158 -0.0278,0.2736 0.2017,0.0211 z m 4.65235,4.56406 c 0.8482,-0.2354 1.16039,-0.63843 0.81993,-1.05862 -0.27968,-0.34526 -0.45966,-0.28194 -0.67327,0.2368 -0.0988,0.24007 -0.33958,0.56966 -0.53501,0.73238 -0.34203,0.28483 -0.32749,0.28819 0.38835,0.0895 z m -0.93424,-7.02381 c 0.0245,-0.0877 0.10468,-0.21575 0.0339,-0.44125 -0.0925,-0.29496 -0.21419,-0.39367 -0.43362,-0.35157 -0.25833,0.0491 -0.2879,0.16998 -0.19327,0.78798 0.21647,0.74291 0.21798,0.76443 0.59299,0.008 z m 1.26655,-2.77594 c 0.0983,0.44951 0.10214,0.44631 0.3027,-0.26245 0.22327,-0.78892 0.0251,-1.22322 -0.51134,-1.12037 -0.40419,0.36865 0.0711,0.78229 0.20864,1.38282 z m 2.71118,7.90395 c 0.84403,0.18823 0.93042,0.1667 1.06468,-0.2644 0.15696,-0.504 -0.30103,-0.82322 -0.70804,-0.49356 -0.15438,0.12507 -0.45666,0.2612 -0.67185,0.30245 -0.56656,0.10862 -0.44353,0.28639 0.3152,0.45551 z m 0.88032,-6.85025 c 0.28418,-0.0546 1.39576,-1.79022 1.41839,-2.21493 0.0271,-0.50767 -0.44764,-0.9748 -0.90208,-0.8877 -0.496,0.0951 -0.66671,0.57628 -0.50459,1.42157 0.0894,0.46619 0.0836,0.93971 -0.014,1.13753 -0.19227,0.39001 -0.19152,0.58072 0.002,0.54353 z"
       style="fill:#0244a9;fill-opacity:1;stroke-width:0.155256"
       inkscape:export-filename="D:\palzq\Desktop\daphos\tonagua\render\tonagua_2.png"
       inkscape:export-xdpi="300"
       inkscape:export-ydpi="300" />
    <path
       style="fill:#0244a9;fill-opacity:1;stroke-width:0.155256"
       d="m 92.473099,143.80122 c 0,0 2.283397,5.31453 4.465838,7.04183 1.906944,1.50921 3.719723,2.35574 6.655173,2.82076 3.00634,0.47625 7.16881,0.56514 10.47251,-0.88614 0.6614,-0.34947 0.93956,-0.69815 0.73474,-0.92108 -0.18885,-0.20561 -0.45036,-0.11828 -1.19774,0.39953 -0.79493,0.55087 -2.2695,0.90844 -3.06098,0.74213 -0.66541,-0.1398 -1.24543,-0.79453 -1.03775,-1.17168 0.19318,-0.35087 0.70789,-0.41176 1.22742,-0.14494 0.54167,0.27804 0.82279,0.23173 1.69218,-0.27852 0.58203,-0.34159 0.74535,-0.38198 1.10017,-0.27141 0.44973,0.14003 0.73596,-0.0117 0.67005,-0.35517 -0.0678,-0.35383 -0.63379,-0.4279 -1.70269,-0.22291 -1.47228,0.28233 -2.05455,-0.0187 -1.57225,-0.812 0.1564,-0.25738 0.39586,-0.33247 1.55209,-0.48662 1.19956,-0.15976 1.44602,-0.24109 2.01048,-0.66158 0.71455,-0.53239 1.41975,-0.63711 2.46017,-0.36538 0.76791,0.20054 0.84661,0.0297 0.23755,-0.51476 -0.28588,-0.25567 -0.53442,-0.64264 -0.58624,-0.91289 -0.0768,-0.4 -0.0236,-0.49754 0.36046,-0.66253 0.36939,-0.15867 0.42458,-0.24966 0.30676,-0.50611 -0.1605,-0.34939 0.40567,-1.05136 1.35528,-1.68028 0.59012,-0.39079 0.62934,-0.89425 0.0829,-1.06438 -0.51222,-0.15961 -0.59337,-0.0919 -0.76777,0.63912 -0.20439,0.85691 -0.913,1.41246 -1.89915,1.48879 -0.59024,0.046 -0.69322,0.10838 -0.94582,0.5773 -0.1558,0.28927 -0.35885,0.76209 -0.4511,1.05066 -0.1133,0.35438 -0.25006,0.50986 -0.42187,0.47906 -0.34162,-0.0608 -0.34901,-0.18549 -0.0741,-1.25167 0.12978,-0.50323 0.18684,-0.94829 0.12692,-0.98899 -0.06,-0.0405 -0.56317,0.61932 -1.11824,1.46679 -0.55497,0.84739 -1.29277,1.78555 -1.63946,2.0848 -0.69245,0.59773 -1.41208,0.94197 -2.15992,0.87266 l -0.4807,-0.0445 0.71267,-0.37839 c 0.94176,-0.67352 1.57526,-2.18304 1.03099,-2.07864 -0.0709,0.0133 -0.23172,0.19399 -0.35748,0.40093 -0.29346,0.48295 -0.87912,0.94283 -1.30445,1.02439 -0.29207,0.0561 -0.26281,-0.0484 0.23587,-0.83898 0.64404,-1.02158 0.85429,-1.79139 0.70368,-2.57687 -0.0724,-0.37715 -0.17191,-0.52537 -0.33202,-0.49465 -0.1258,0.0242 -0.20915,0.14573 -0.18526,0.27033 0.0746,0.38868 -0.91911,3.47159 -1.32239,4.103 -0.68819,1.07725 -1.14749,1.67693 -3.14718,2.46523 -5.630897,2.21952 -12.429391,-7.35613 -12.429391,-7.35613 z"
       id="path1152"
       inkscape:connector-curvature="0"
       sodipodi:nodetypes="ccsccccccccsscccccscccccccccccsccccscscsssssc"
       inkscape:export-filename="D:\palzq\Desktop\daphos\tonagua\render\tonagua_2.png"
       inkscape:export-xdpi="300"
       inkscape:export-ydpi="300" />
    <path
       inkscape:connector-curvature="0"
       id="path1154"
       style="font-style:normal;font-variant:normal;font-weight:bold;font-stretch:normal;font-size:medium;line-height:1.25;font-family:Century;-inkscape-font-specification:'Century Bold';letter-spacing:0px;word-spacing:0px;fill:#ffffff;fill-opacity:1;stroke:none;stroke-width:0.341223"
       d="m 112.02481,166.32059 q 0.53316,-0.53847 0.98102,-0.53847 0.26659,0 0.44252,0.1706 0.17595,0.1706 0.17595,0.41582 0,0.19727 -0.12263,0.3306 -0.11729,0.12795 -0.27724,0.12795 -0.30391,0 -0.41053,-0.37325 -0.0427,-0.15992 -0.14396,-0.15992 -0.18128,0 -0.39453,0.23992 0.22925,0.31454 0.31455,0.54915 0.0853,0.22924 0.0853,0.49582 0,0.46385 -0.22393,0.82111 -0.22393,0.35189 -0.74642,0.62378 -0.51717,0.27196 -0.99169,0.27196 h -0.58113 q -0.61847,0 -0.82107,0.12795 -0.2026,0.13326 -0.2026,0.38916 0,0.20795 0.16528,0.31991 0.16527,0.11197 0.6238,0.11197 l 1.3169,-0.0265 q 0.99701,0 1.4342,0.3359 0.44253,0.33052 0.44253,0.91172 0,0.63975 -0.50118,1.07694 -0.69843,0.61846 -2.08465,0.61846 -1.1463,0 -1.70078,-0.42119 -0.4372,-0.33052 -0.4372,-0.74104 0,-0.31462 0.27725,-0.57582 0.28256,-0.26128 0.94369,-0.38923 -0.52783,-0.12795 -0.79441,-0.37325 -0.26658,-0.25052 -0.26658,-0.61839 0,-0.34128 0.21326,-0.59188 0.2186,-0.25591 0.75176,-0.43719 -0.45319,-0.25052 -0.68244,-0.60248 -0.22927,-0.35719 -0.22927,-0.81566 0,-0.72513 0.57049,-1.21565 0.57048,-0.49052 1.48218,-0.49052 0.37322,0 0.71978,0.10667 0.34655,0.10658 0.67177,0.32522 z m -1.4022,-0.0907 q -0.47452,0 -0.78375,0.35196 -0.30924,0.3465 -0.30924,0.97566 0,0.67179 0.30924,1.04497 0.30923,0.36786 0.78908,0.36786 0.47984,0 0.78375,-0.35718 0.30922,-0.36257 0.30922,-1.03437 0,-0.62377 -0.31456,-0.98633 -0.30924,-0.36257 -0.78374,-0.36257 z m 0.31456,4.80911 q -0.98102,0 -1.40221,0.27197 -0.41587,0.27188 -0.41587,0.65573 0,0.36258 0.31456,0.57052 0.41586,0.27727 1.18362,0.27727 0.91704,0 1.38089,-0.30394 0.46385,-0.30393 0.46385,-0.6771 0,-0.21863 -0.14395,-0.41052 -0.14396,-0.18666 -0.45852,-0.28795 -0.31456,-0.096 -0.92237,-0.096 z"
       inkscape:export-filename="D:\palzq\Desktop\daphos\tonagua\render\tonagua_2.png"
       inkscape:export-xdpi="300"
       inkscape:export-ydpi="300" />
    <path
       inkscape:connector-curvature="0"
       id="path1156"
       style="font-style:normal;font-variant:normal;font-weight:bold;font-stretch:normal;font-size:medium;line-height:1.25;font-family:Century;-inkscape-font-specification:'Century Bold';letter-spacing:0px;word-spacing:0px;fill:#ffffff;fill-opacity:1;stroke:none;stroke-width:0.341223"
       d="m 115.77294,165.94734 v 3.31097 q 0,0.60779 0.30391,0.93831 0.30922,0.3306 0.7944,0.3306 0.59714,0 1.01301,-0.47984 0.42119,-0.48521 0.42119,-1.21027 v -1.87139 q 0,-0.2559 -0.1866,-0.39453 -0.18128,-0.14394 -0.70378,-0.16 v -0.37317 l 1.7541,-0.0907 v 4.10004 q 0,0.28257 0.15995,0.43719 0.15996,0.14931 0.44786,0.14931 h 0.31456 v 0.35719 l -1.67946,0.0429 -0.10663,-0.98634 q -0.44784,0.52786 -0.90103,0.79437 -0.4532,0.26658 -0.91705,0.26658 -0.67711,0 -1.13563,-0.45317 -0.46385,-0.44787 -0.46385,-1.51951 v -2.16994 q 0,-0.28795 -0.22926,-0.43718 -0.15994,-0.10666 -0.65579,-0.11735 v -0.37317 z"
       inkscape:export-filename="D:\palzq\Desktop\daphos\tonagua\render\tonagua_2.png"
       inkscape:export-xdpi="300"
       inkscape:export-ydpi="300" />
    <path
       inkscape:connector-curvature="0"
       id="path1158"
       style="font-style:normal;font-variant:normal;font-weight:bold;font-stretch:normal;font-size:medium;line-height:1.25;font-family:Century;-inkscape-font-specification:'Century Bold';letter-spacing:0px;word-spacing:0px;fill:#ffffff;fill-opacity:1;stroke:none;stroke-width:0.341223"
       d="m 126.01495,170.48457 0.19194,0.29855 q -0.3892,0.39991 -0.86372,0.39991 -0.36254,0 -0.61313,-0.19726 -0.24525,-0.19727 -0.43185,-0.69317 -0.50651,0.53317 -0.89038,0.71445 -0.38388,0.17598 -0.92237,0.17598 -0.76776,0 -1.16762,-0.33059 -0.39987,-0.33052 -0.39987,-0.84771 0,-0.77839 0.91169,-1.29027 0.91704,-0.51718 2.43655,-0.68778 v -0.7571 q 0,-0.40514 -0.32522,-0.69309 -0.32524,-0.28787 -0.82641,-0.28787 -0.46384,0 -0.79974,0.19189 -0.23992,0.14393 -0.23992,0.28256 0,0.08 0.12795,0.2506 0.15462,0.21325 0.15462,0.37856 0,0.23991 -0.15462,0.39453 -0.1546,0.14931 -0.4052,0.14931 -0.26657,0 -0.44785,-0.18128 -0.17594,-0.18128 -0.17594,-0.46385 0,-0.52787 0.5918,-0.96505 0.59714,-0.43719 1.56217,-0.43719 0.89038,0 1.35956,0.38386 0.46918,0.38922 0.46918,0.94376 v 2.72977 q 0,0.3625 0.11729,0.53318 0.1173,0.17589 0.30391,0.17589 0.20793,0 0.43718,-0.17059 z m -1.74876,-2.106 q -1.35423,0.18666 -1.91938,0.60778 -0.4212,0.31991 -0.4212,0.90641 0,0.41053 0.21859,0.64514 0.2186,0.22923 0.57049,0.22923 0.62913,0 1.08765,-0.47453 0.46385,-0.47983 0.46385,-1.19959 z"
       inkscape:export-filename="D:\palzq\Desktop\daphos\tonagua\render\tonagua_2.png"
       inkscape:export-xdpi="300"
       inkscape:export-ydpi="300" />
    <path
       inkscape:connector-curvature="0"
       id="path1160"
       style="font-style:normal;font-variant:normal;font-weight:600;font-stretch:normal;font-size:medium;line-height:1.25;font-family:Raleway;-inkscape-font-specification:'Raleway Semi-Bold';font-variant-ligatures:normal;font-variant-caps:normal;font-variant-numeric:normal;font-feature-settings:normal;text-align:start;letter-spacing:5.29167px;word-spacing:0px;writing-mode:lr-tb;text-anchor:start;fill:#0244a9;fill-opacity:1;stroke:none;stroke-width:0.139517"
       d="m 87.102456,176.17569 v -1.58485 h 0.665205 q 0.107158,0 0.196442,0.0445 0.09153,0.0444 0.156262,0.11836 0.06472,0.0717 0.100448,0.16514 0.03797,0.0915 0.03797,0.18752 0,0.10043 -0.03571,0.19424 -0.03343,0.0915 -0.09599,0.16514 -0.06253,0.0717 -0.151789,0.11609 -0.08706,0.0421 -0.194216,0.0421 h -0.428585 v 0.55133 z m 0.250016,-0.7723 h 0.412969 q 0.05356,0 0.09599,-0.0226 0.04468,-0.0226 0.07587,-0.0624 0.03127,-0.0405 0.04912,-0.0938 0.01787,-0.0538 0.01787,-0.11829 0,-0.0671 -0.0201,-0.12054 -0.0201,-0.0538 -0.05583,-0.0915 -0.03571,-0.0405 -0.08259,-0.06 -0.04468,-0.0226 -0.09374,-0.0226 h -0.399582 z"
       inkscape:export-filename="D:\palzq\Desktop\daphos\tonagua\render\tonagua_2.png"
       inkscape:export-xdpi="300"
       inkscape:export-ydpi="300" />
    <path
       inkscape:connector-curvature="0"
       id="path1162"
       style="font-style:normal;font-variant:normal;font-weight:600;font-stretch:normal;font-size:medium;line-height:1.25;font-family:Raleway;-inkscape-font-specification:'Raleway Semi-Bold';font-variant-ligatures:normal;font-variant-caps:normal;font-variant-numeric:normal;font-feature-settings:normal;text-align:start;letter-spacing:5.29167px;word-spacing:0px;writing-mode:lr-tb;text-anchor:start;fill:#0244a9;fill-opacity:1;stroke:none;stroke-width:0.139517"
       d="m 89.425146,174.59084 h 0.218756 l 0.625042,1.58485 H 90.00554 l -0.167418,-0.43079 h -0.611649 l -0.165182,0.43079 h -0.265657 z m 0.363858,0.9688 -0.25448,-0.68085 -0.263403,0.68085 z"
       inkscape:export-filename="D:\palzq\Desktop\daphos\tonagua\render\tonagua_2.png"
       inkscape:export-xdpi="300"
       inkscape:export-ydpi="300" />
    <path
       inkscape:connector-curvature="0"
       id="path1164"
       style="font-style:normal;font-variant:normal;font-weight:600;font-stretch:normal;font-size:medium;line-height:1.25;font-family:Raleway;-inkscape-font-specification:'Raleway Semi-Bold';font-variant-ligatures:normal;font-variant-caps:normal;font-variant-numeric:normal;font-feature-settings:normal;text-align:start;letter-spacing:5.29167px;word-spacing:0px;writing-mode:lr-tb;text-anchor:start;fill:#0244a9;fill-opacity:1;stroke:none;stroke-width:0.139517"
       d="m 92.038805,174.81182 h -0.52682 v 1.36387 h -0.252247 v -1.36387 h -0.52905 v -0.22098 h 1.308117 z"
       inkscape:export-filename="D:\palzq\Desktop\daphos\tonagua\render\tonagua_2.png"
       inkscape:export-xdpi="300"
       inkscape:export-ydpi="300" />
    <path
       inkscape:connector-curvature="0"
       id="path1166"
       style="font-style:normal;font-variant:normal;font-weight:600;font-stretch:normal;font-size:medium;line-height:1.25;font-family:Raleway;-inkscape-font-specification:'Raleway Semi-Bold';font-variant-ligatures:normal;font-variant-caps:normal;font-variant-numeric:normal;font-feature-settings:normal;text-align:start;letter-spacing:5.29167px;word-spacing:0px;writing-mode:lr-tb;text-anchor:start;fill:#0244a9;fill-opacity:1;stroke:none;stroke-width:0.139517"
       d="m 92.814769,176.17569 v -1.58485 h 0.689772 q 0.107149,0 0.196433,0.0445 0.09153,0.0444 0.156262,0.11836 0.06472,0.0717 0.100451,0.16514 0.03797,0.0915 0.03797,0.18752 0,0.0804 -0.0223,0.154 -0.0223,0.0741 -0.06253,0.13621 -0.04015,0.0624 -0.09822,0.1094 -0.05801,0.0444 -0.127242,0.067 l 0.372788,0.60264 h -0.2835 l -0.343761,-0.55133 H 93.0648 v 0.55133 z m 0.250024,-0.7723 h 0.437518 q 0.05357,0 0.09599,-0.0226 0.04468,-0.0249 0.07587,-0.0647 0.03127,-0.0421 0.04912,-0.096 0.01787,-0.0538 0.01787,-0.11385 0,-0.06 -0.0223,-0.11383 -0.0201,-0.0538 -0.05583,-0.0938 -0.03347,-0.0405 -0.08036,-0.0624 -0.04468,-0.0249 -0.09376,-0.0249 h -0.424132 z"
       inkscape:export-filename="D:\palzq\Desktop\daphos\tonagua\render\tonagua_2.png"
       inkscape:export-xdpi="300"
       inkscape:export-ydpi="300" />
    <path
       inkscape:connector-curvature="0"
       id="path1168"
       style="font-style:normal;font-variant:normal;font-weight:600;font-stretch:normal;font-size:medium;line-height:1.25;font-family:Raleway;-inkscape-font-specification:'Raleway Semi-Bold';font-variant-ligatures:normal;font-variant-caps:normal;font-variant-numeric:normal;font-feature-settings:normal;text-align:start;letter-spacing:5.29167px;word-spacing:0px;writing-mode:lr-tb;text-anchor:start;fill:#0244a9;fill-opacity:1;stroke:none;stroke-width:0.139517"
       d="m 94.85403,176.17569 v -1.58485 h 0.250017 v 1.58485 z"
       inkscape:export-filename="D:\palzq\Desktop\daphos\tonagua\render\tonagua_2.png"
       inkscape:export-xdpi="300"
       inkscape:export-ydpi="300" />
    <path
       inkscape:connector-curvature="0"
       id="path1170"
       style="font-style:normal;font-variant:normal;font-weight:600;font-stretch:normal;font-size:medium;line-height:1.25;font-family:Raleway;-inkscape-font-specification:'Raleway Semi-Bold';font-variant-ligatures:normal;font-variant-caps:normal;font-variant-numeric:normal;font-feature-settings:normal;text-align:start;letter-spacing:5.29167px;word-spacing:0px;writing-mode:lr-tb;text-anchor:start;fill:#0244a9;fill-opacity:1;stroke:none;stroke-width:0.139517"
       d="m 97.358345,176.17569 v -1.14064 l -0.471016,0.86384 h -0.138392 l -0.473239,-0.86384 v 1.14064 h -0.250024 v -1.58485 h 0.267871 l 0.52459,0.9688 0.524583,-0.9688 h 0.26787 v 1.58485 z"
       inkscape:export-filename="D:\palzq\Desktop\daphos\tonagua\render\tonagua_2.png"
       inkscape:export-xdpi="300"
       inkscape:export-ydpi="300" />
    <path
       inkscape:connector-curvature="0"
       id="path1172"
       style="font-style:normal;font-variant:normal;font-weight:600;font-stretch:normal;font-size:medium;line-height:1.25;font-family:Raleway;-inkscape-font-specification:'Raleway Semi-Bold';font-variant-ligatures:normal;font-variant-caps:normal;font-variant-numeric:normal;font-feature-settings:normal;text-align:start;letter-spacing:5.29167px;word-spacing:0px;writing-mode:lr-tb;text-anchor:start;fill:#0244a9;fill-opacity:1;stroke:none;stroke-width:0.139517"
       d="m 99.18997,176.18692 q -0.169659,0 -0.310288,-0.0671 -0.138398,-0.0694 -0.238849,-0.18081 -0.100458,-0.11384 -0.156262,-0.25895 -0.05357,-0.1451 -0.05357,-0.29691 0,-0.15852 0.05801,-0.30362 0.05801,-0.14503 0.158492,-0.25668 0.102681,-0.11158 0.24109,-0.17637 0.140628,-0.0671 0.305817,-0.0671 0.169652,0 0.308051,0.0717 0.140635,0.0694 0.238849,0.183 0.100458,0.11384 0.154032,0.25895 0.05583,0.14292 0.05583,0.29247 0,0.15844 -0.05801,0.30354 -0.05582,0.1451 -0.158482,0.25676 -0.102688,0.1094 -0.243316,0.17629 -0.138402,0.0647 -0.301361,0.0647 z m -0.50449,-0.80365 q 0,0.11158 0.03571,0.21652 0.03571,0.10496 0.100452,0.18527 0.06698,0.0804 0.160728,0.12951 0.09376,0.0468 0.20983,0.0468 0.120552,0 0.212066,-0.0491 0.09375,-0.0515 0.158492,-0.13395 0.06472,-0.0826 0.09822,-0.18527 0.03343,-0.10268 0.03343,-0.20982 0,-0.11383 -0.03571,-0.21653 -0.03571,-0.10494 -0.102692,-0.18307 -0.06471,-0.0803 -0.158481,-0.12725 -0.09153,-0.0491 -0.205377,-0.0491 -0.120538,0 -0.214299,0.0514 -0.09375,0.0491 -0.158492,0.12952 -0.06471,0.0803 -0.100441,0.18526 -0.03354,0.10269 -0.03354,0.20982 z"
       inkscape:export-filename="D:\palzq\Desktop\daphos\tonagua\render\tonagua_2.png"
       inkscape:export-xdpi="300"
       inkscape:export-ydpi="300" />
    <path
       inkscape:connector-curvature="0"
       id="path1174"
       style="font-style:normal;font-variant:normal;font-weight:600;font-stretch:normal;font-size:medium;line-height:1.25;font-family:Raleway;-inkscape-font-specification:'Raleway Semi-Bold';font-variant-ligatures:normal;font-variant-caps:normal;font-variant-numeric:normal;font-feature-settings:normal;text-align:start;letter-spacing:5.29167px;word-spacing:0px;writing-mode:lr-tb;text-anchor:start;fill:#0244a9;fill-opacity:1;stroke:none;stroke-width:0.139517"
       d="m 101.02564,175.05961 v 1.11608 h -0.25001 v -1.58485 h 0.19644 l 0.9063,1.14291 v -1.14072 h 0.25225 v 1.58266 h -0.2076 z"
       inkscape:export-filename="D:\palzq\Desktop\daphos\tonagua\render\tonagua_2.png"
       inkscape:export-xdpi="300"
       inkscape:export-ydpi="300" />
    <path
       inkscape:connector-curvature="0"
       id="path1176"
       style="font-style:normal;font-variant:normal;font-weight:600;font-stretch:normal;font-size:medium;line-height:1.25;font-family:Raleway;-inkscape-font-specification:'Raleway Semi-Bold';font-variant-ligatures:normal;font-variant-caps:normal;font-variant-numeric:normal;font-feature-settings:normal;text-align:start;letter-spacing:5.29167px;word-spacing:0px;writing-mode:lr-tb;text-anchor:start;fill:#0244a9;fill-opacity:1;stroke:none;stroke-width:0.139517"
       d="m 103.05469,176.17569 v -1.58485 h 0.25001 v 1.58485 z"
       inkscape:export-filename="D:\palzq\Desktop\daphos\tonagua\render\tonagua_2.png"
       inkscape:export-xdpi="300"
       inkscape:export-ydpi="300" />
    <path
       inkscape:connector-curvature="0"
       id="path1178"
       style="font-style:normal;font-variant:normal;font-weight:600;font-stretch:normal;font-size:medium;line-height:1.25;font-family:Raleway;-inkscape-font-specification:'Raleway Semi-Bold';font-variant-ligatures:normal;font-variant-caps:normal;font-variant-numeric:normal;font-feature-settings:normal;text-align:start;letter-spacing:5.29167px;word-spacing:0px;writing-mode:lr-tb;text-anchor:start;fill:#0244a9;fill-opacity:1;stroke:none;stroke-width:0.139517"
       d="m 104.88485,176.18692 q -0.16966,0 -0.31029,-0.0671 -0.1384,-0.0694 -0.23885,-0.18081 -0.10046,-0.11384 -0.15626,-0.25895 -0.0536,-0.1451 -0.0536,-0.29691 0,-0.15852 0.058,-0.30362 0.058,-0.14503 0.1585,-0.25668 0.10268,-0.11158 0.24108,-0.17637 0.14064,-0.0671 0.30582,-0.0671 0.16965,0 0.30805,0.0717 0.14063,0.0694 0.23885,0.183 0.10046,0.11384 0.15403,0.25895 0.0558,0.14292 0.0558,0.29247 0,0.15844 -0.058,0.30354 -0.0558,0.1451 -0.15849,0.25676 -0.10269,0.1094 -0.24332,0.17629 -0.1384,0.0647 -0.30136,0.0647 z m -0.50449,-0.80365 q 0,0.11158 0.0357,0.21652 0.0357,0.10496 0.10045,0.18527 0.067,0.0804 0.16072,0.12951 0.0938,0.0468 0.20983,0.0468 0.12055,0 0.21207,-0.0491 0.0938,-0.0515 0.15849,-0.13395 0.0647,-0.0826 0.0982,-0.18527 0.0334,-0.10268 0.0334,-0.20982 0,-0.11383 -0.0357,-0.21653 -0.0357,-0.10494 -0.10268,-0.18307 -0.0647,-0.0803 -0.15849,-0.12725 -0.0915,-0.0491 -0.20538,-0.0491 -0.12054,0 -0.2143,0.0514 -0.0937,0.0491 -0.15848,0.12952 -0.0647,0.0803 -0.10045,0.18526 -0.0335,0.10269 -0.0335,0.20982 z"
       inkscape:export-filename="D:\palzq\Desktop\daphos\tonagua\render\tonagua_2.png"
       inkscape:export-xdpi="300"
       inkscape:export-ydpi="300" />
    <path
       inkscape:connector-curvature="0"
       id="path1180"
       style="font-style:normal;font-variant:normal;font-weight:600;font-stretch:normal;font-size:medium;line-height:1.25;font-family:Raleway;-inkscape-font-specification:'Raleway Semi-Bold';font-variant-ligatures:normal;font-variant-caps:normal;font-variant-numeric:normal;font-feature-settings:normal;text-align:start;letter-spacing:5.29167px;word-spacing:0px;writing-mode:lr-tb;text-anchor:start;fill:#0244a9;fill-opacity:1;stroke:none;stroke-width:0.139517"
       d="m 107.48501,175.37212 q 0,-0.14284 0.0514,-0.28351 0.0513,-0.14284 0.14956,-0.2545 0.10046,-0.11383 0.24333,-0.18299 0.14286,-0.0694 0.32367,-0.0694 0.21653,0 0.37056,0.096 0.15402,0.096 0.23215,0.25005 l -0.19644,0.1317 q -0.0335,-0.0717 -0.0804,-0.12055 -0.0469,-0.0491 -0.10268,-0.0781 -0.0558,-0.0289 -0.11607,-0.0405 -0.0603,-0.0133 -0.11609,-0.0133 -0.125,0 -0.21876,0.0514 -0.0937,0.0491 -0.15849,0.1317 -0.0625,0.0826 -0.096,0.18526 -0.0313,0.10269 -0.0313,0.20537 0,0.11611 0.038,0.22105 0.038,0.10488 0.10491,0.18527 0.0692,0.0804 0.16296,0.12942 0.0937,0.0468 0.20537,0.0468 0.058,0 0.11831,-0.0133 0.0625,-0.0156 0.1183,-0.0468 0.058,-0.0335 0.10493,-0.0827 0.0491,-0.0491 0.0804,-0.11828 l 0.2076,0.11828 q -0.038,0.0893 -0.10715,0.15852 -0.0692,0.0671 -0.15626,0.11383 -0.0871,0.0468 -0.18528,0.0717 -0.096,0.0249 -0.18974,0.0249 -0.16742,0 -0.30582,-0.0717 -0.1384,-0.0717 -0.23886,-0.18526 -0.10044,-0.1161 -0.15625,-0.2612 -0.0558,-0.14729 -0.0558,-0.2991 z"
       inkscape:export-filename="D:\palzq\Desktop\daphos\tonagua\render\tonagua_2.png"
       inkscape:export-xdpi="300"
       inkscape:export-ydpi="300" />
    <path
       inkscape:connector-curvature="0"
       id="path1182"
       style="font-style:normal;font-variant:normal;font-weight:600;font-stretch:normal;font-size:medium;line-height:1.25;font-family:Raleway;-inkscape-font-specification:'Raleway Semi-Bold';font-variant-ligatures:normal;font-variant-caps:normal;font-variant-numeric:normal;font-feature-settings:normal;text-align:start;letter-spacing:5.29167px;word-spacing:0px;writing-mode:lr-tb;text-anchor:start;fill:#0244a9;fill-opacity:1;stroke:none;stroke-width:0.139517"
       d="m 110.12181,174.59084 h 0.21875 l 0.62504,1.58485 h -0.26341 l -0.16742,-0.43079 h -0.61164 l -0.16519,0.43079 h -0.26564 z m 0.36385,0.9688 -0.25448,-0.68085 -0.2634,0.68085 z"
       inkscape:export-filename="D:\palzq\Desktop\daphos\tonagua\render\tonagua_2.png"
       inkscape:export-xdpi="300"
       inkscape:export-ydpi="300" />
    <path
       inkscape:connector-curvature="0"
       id="path1184"
       style="font-style:normal;font-variant:normal;font-weight:600;font-stretch:normal;font-size:medium;line-height:1.25;font-family:Raleway;-inkscape-font-specification:'Raleway Semi-Bold';font-variant-ligatures:normal;font-variant-caps:normal;font-variant-numeric:normal;font-feature-settings:normal;text-align:start;letter-spacing:5.29167px;word-spacing:0px;writing-mode:lr-tb;text-anchor:start;fill:#0244a9;fill-opacity:1;stroke:none;stroke-width:0.139517"
       d="m 113.06206,176.17569 v -1.14064 l -0.471,0.86384 h -0.1384 l -0.47325,-0.86384 v 1.14064 h -0.25001 v -1.58485 h 0.26787 l 0.52459,0.9688 0.52458,-0.9688 h 0.26787 v 1.58485 z"
       inkscape:export-filename="D:\palzq\Desktop\daphos\tonagua\render\tonagua_2.png"
       inkscape:export-xdpi="300"
       inkscape:export-ydpi="300" />
    <path
       inkscape:connector-curvature="0"
       id="path1186"
       style="font-style:normal;font-variant:normal;font-weight:600;font-stretch:normal;font-size:medium;line-height:1.25;font-family:Raleway;-inkscape-font-specification:'Raleway Semi-Bold';font-variant-ligatures:normal;font-variant-caps:normal;font-variant-numeric:normal;font-feature-settings:normal;text-align:start;letter-spacing:5.29167px;word-spacing:0px;writing-mode:lr-tb;text-anchor:start;fill:#0244a9;fill-opacity:1;stroke:none;stroke-width:0.139517"
       d="m 114.23517,176.17569 v -1.58485 h 0.66521 q 0.10716,0 0.19644,0.0445 0.0915,0.0444 0.15626,0.11836 0.0647,0.0717 0.10045,0.16514 0.038,0.0915 0.038,0.18752 0,0.10043 -0.0357,0.19424 -0.0335,0.0915 -0.096,0.16514 -0.0625,0.0717 -0.15178,0.11609 -0.0871,0.0421 -0.19422,0.0421 h -0.42859 v 0.55133 z m 0.25002,-0.7723 h 0.41296 q 0.0536,0 0.096,-0.0226 0.0447,-0.0226 0.0759,-0.0624 0.0313,-0.0405 0.0491,-0.0938 0.0178,-0.0538 0.0178,-0.11829 0,-0.0671 -0.0201,-0.12054 -0.0201,-0.0538 -0.0558,-0.0915 -0.0357,-0.0405 -0.0826,-0.06 -0.0447,-0.0226 -0.0938,-0.0226 h -0.39956 z"
       inkscape:export-filename="D:\palzq\Desktop\daphos\tonagua\render\tonagua_2.png"
       inkscape:export-xdpi="300"
       inkscape:export-ydpi="300" />
    <path
       inkscape:connector-curvature="0"
       id="path1188"
       style="font-style:normal;font-variant:normal;font-weight:600;font-stretch:normal;font-size:medium;line-height:1.25;font-family:Raleway;-inkscape-font-specification:'Raleway Semi-Bold';font-variant-ligatures:normal;font-variant-caps:normal;font-variant-numeric:normal;font-feature-settings:normal;text-align:start;letter-spacing:5.29167px;word-spacing:0px;writing-mode:lr-tb;text-anchor:start;fill:#0244a9;fill-opacity:1;stroke:none;stroke-width:0.139517"
       d="m 117.27872,175.95472 v 0.22097 h -1.08712 v -1.58485 h 1.06702 v 0.22098 h -0.817 v 0.45091 h 0.70762 v 0.20763 h -0.70762 v 0.48436 z"
       inkscape:export-filename="D:\palzq\Desktop\daphos\tonagua\render\tonagua_2.png"
       inkscape:export-xdpi="300"
       inkscape:export-ydpi="300" />
    <path
       inkscape:connector-curvature="0"
       id="path1190"
       style="font-style:normal;font-variant:normal;font-weight:600;font-stretch:normal;font-size:medium;line-height:1.25;font-family:Raleway;-inkscape-font-specification:'Raleway Semi-Bold';font-variant-ligatures:normal;font-variant-caps:normal;font-variant-numeric:normal;font-feature-settings:normal;text-align:start;letter-spacing:5.29167px;word-spacing:0px;writing-mode:lr-tb;text-anchor:start;fill:#0244a9;fill-opacity:1;stroke:none;stroke-width:0.139517"
       d="m 119.0071,174.96363 q -0.0223,-0.0249 -0.0647,-0.0515 -0.0424,-0.0289 -0.10044,-0.0538 -0.0558,-0.0242 -0.12501,-0.0397 -0.067,-0.0156 -0.1384,-0.0156 -0.15849,0 -0.23438,0.0585 -0.0737,0.0577 -0.0737,0.1607 0,0.0577 0.0223,0.096 0.0246,0.0359 0.0737,0.0647 0.0491,0.0265 0.12278,0.0491 0.0737,0.0203 0.17188,0.0445 0.12054,0.0289 0.21652,0.0647 0.0982,0.0359 0.16519,0.0871 0.067,0.0515 0.10269,0.12718 0.038,0.0741 0.038,0.18081 0,0.12054 -0.0469,0.20764 -0.0447,0.087 -0.125,0.14284 -0.0781,0.0538 -0.18304,0.0804 -0.10493,0.0242 -0.22547,0.0242 -0.18082,0 -0.35047,-0.0538 -0.16742,-0.0561 -0.30358,-0.16077 l 0.11384,-0.21427 q 0.029,0.0289 0.0826,0.0647 0.0558,0.0359 0.12723,0.0671 0.0737,0.0288 0.1585,0.0515 0.0848,0.0203 0.17634,0.0203 0.14734,0 0.2277,-0.0515 0.0804,-0.0515 0.0804,-0.15181 0,-0.06 -0.0313,-0.10043 -0.029,-0.0405 -0.0848,-0.0694 -0.0558,-0.0312 -0.13618,-0.0561 -0.0803,-0.0242 -0.18304,-0.0515 -0.11831,-0.0312 -0.2076,-0.0647 -0.0871,-0.0359 -0.1451,-0.0848 -0.058,-0.0491 -0.0893,-0.11384 -0.029,-0.0671 -0.029,-0.16077 0,-0.11603 0.0447,-0.20539 0.0447,-0.0915 0.12054,-0.15172 0.0781,-0.0624 0.18305,-0.0938 0.10491,-0.0312 0.22769,-0.0312 0.16072,0 0.2969,0.0515 0.13616,0.0515 0.23885,0.12725 z"
       inkscape:export-filename="D:\palzq\Desktop\daphos\tonagua\render\tonagua_2.png"
       inkscape:export-xdpi="300"
       inkscape:export-ydpi="300" />
    <path
       inkscape:connector-curvature="0"
       id="path1192"
       style="font-style:normal;font-variant:normal;font-weight:600;font-stretch:normal;font-size:medium;line-height:1.25;font-family:Raleway;-inkscape-font-specification:'Raleway Semi-Bold';font-variant-ligatures:normal;font-variant-caps:normal;font-variant-numeric:normal;font-feature-settings:normal;text-align:start;letter-spacing:5.29167px;word-spacing:0px;writing-mode:lr-tb;text-anchor:start;fill:#0244a9;fill-opacity:1;stroke:none;stroke-width:0.139517"
       d="m 119.99981,176.17569 v -1.58485 h 0.25001 v 1.58485 z"
       inkscape:export-filename="D:\palzq\Desktop\daphos\tonagua\render\tonagua_2.png"
       inkscape:export-xdpi="300"
       inkscape:export-ydpi="300" />
    <path
       inkscape:connector-curvature="0"
       id="path1194"
       style="font-style:normal;font-variant:normal;font-weight:600;font-stretch:normal;font-size:medium;line-height:1.25;font-family:Raleway;-inkscape-font-specification:'Raleway Semi-Bold';font-variant-ligatures:normal;font-variant-caps:normal;font-variant-numeric:normal;font-feature-settings:normal;text-align:start;letter-spacing:5.29167px;word-spacing:0px;writing-mode:lr-tb;text-anchor:start;fill:#0244a9;fill-opacity:1;stroke:none;stroke-width:0.139517"
       d="m 121.42146,175.05961 v 1.11608 h -0.25001 v -1.58485 h 0.19644 l 0.9063,1.14291 v -1.14072 h 0.25225 v 1.58266 h -0.2076 z"
       inkscape:export-filename="D:\palzq\Desktop\daphos\tonagua\render\tonagua_2.png"
       inkscape:export-xdpi="300"
       inkscape:export-ydpi="300" />
    <path
       inkscape:connector-curvature="0"
       id="path1196"
       style="font-style:normal;font-variant:normal;font-weight:600;font-stretch:normal;font-size:medium;line-height:1.25;font-family:Raleway;-inkscape-font-specification:'Raleway Semi-Bold';font-variant-ligatures:normal;font-variant-caps:normal;font-variant-numeric:normal;font-feature-settings:normal;text-align:start;letter-spacing:5.29167px;word-spacing:0px;writing-mode:lr-tb;text-anchor:start;fill:#0244a9;fill-opacity:1;stroke:none;stroke-width:0.139517"
       d="m 124.10903,176.18692 q -0.16966,0 -0.31029,-0.0671 -0.1384,-0.0694 -0.23885,-0.18081 -0.10046,-0.11384 -0.15626,-0.25895 -0.0536,-0.1451 -0.0536,-0.29691 0,-0.15852 0.058,-0.30362 0.058,-0.14503 0.15849,-0.25668 0.10269,-0.11158 0.24109,-0.17637 0.14063,-0.0671 0.30582,-0.0671 0.16965,0 0.30805,0.0717 0.14063,0.0694 0.23885,0.183 0.10046,0.11384 0.15402,0.25895 0.0558,0.14292 0.0558,0.29247 0,0.15844 -0.058,0.30354 -0.0558,0.1451 -0.15849,0.25676 -0.10269,0.1094 -0.24332,0.17629 -0.1384,0.0647 -0.30136,0.0647 z m -0.50449,-0.80365 q 0,0.11158 0.0357,0.21652 0.0357,0.10496 0.10044,0.18527 0.067,0.0804 0.16073,0.12951 0.0937,0.0468 0.20983,0.0468 0.12055,0 0.21207,-0.0491 0.0938,-0.0515 0.15849,-0.13395 0.0647,-0.0826 0.0982,-0.18527 0.0335,-0.10268 0.0335,-0.20982 0,-0.11383 -0.0357,-0.21653 -0.0357,-0.10494 -0.10269,-0.18307 -0.0647,-0.0803 -0.15849,-0.12725 -0.0915,-0.0491 -0.20537,-0.0491 -0.12054,0 -0.2143,0.0514 -0.0937,0.0491 -0.15848,0.12952 -0.0647,0.0803 -0.10046,0.18526 -0.0335,0.10269 -0.0335,0.20982 z"
       inkscape:export-filename="D:\palzq\Desktop\daphos\tonagua\render\tonagua_2.png"
       inkscape:export-xdpi="300"
       inkscape:export-ydpi="300" />
  </g>
</svg>
